<mxfile host="app.diagrams.net" modified="2023-12-11T19:44:35.598Z" agent="Mozilla/5.0 (X11; Linux x86_64; rv:109.0) Gecko/20100101 Firefox/115.0" version="22.1.7" etag="0MI1XWy6Mc2CoGC8ifeL" type="github">
  <diagram name="Page-1" id="EFgkwB6M0B-YUEtnecG7">
    <mxGraphModel>
      <root>
        <mxCell id="0" />
        <mxCell id="1" parent="0" />
      </root>
    </mxGraphModel>
  </diagram>
</mxfile>
